<svg version="1.1" id="Layer_1" xmlns="http://www.w3.org/2000/svg" xmlns:xlink="http://www.w3.org/1999/xlink" x="0px" y="0px"
	 width="100%" viewBox="0 0 464 166" enable-background="new 0 0 464 166" xml:space="preserve">
<path fill="#FEFEFE" opacity="1.000000" stroke="none" 
	d="
M299.000000,167.000000 
	C199.333359,167.000000 100.166725,167.000000 1.000067,167.000000 
	C1.000044,111.666710 1.000044,56.333424 1.000022,1.000104 
	C155.666580,1.000069 310.333160,1.000069 464.999817,1.000035 
	C464.999878,56.333225 464.999878,111.666451 464.999939,166.999847 
	C409.833344,167.000000 354.666656,167.000000 299.000000,167.000000 
M381.768433,32.907871 
	C381.760651,34.733276 381.598663,36.574188 381.780243,38.380554 
	C382.072449,41.287048 382.591461,44.170746 383.938293,47.223763 
	C390.450531,47.503067 396.962799,47.782372 403.361389,48.983761 
	C403.565002,56.660927 403.768616,64.338089 404.154999,72.664246 
	C408.734161,77.147491 413.313293,81.630737 417.909393,86.074867 
	C417.909393,86.074867 417.881775,86.099396 418.110382,86.681801 
	C418.489563,86.478889 418.868744,86.275978 419.404175,85.137070 
	C419.376007,72.676445 419.347839,60.215820 420.028198,47.452896 
	C427.235077,47.012840 434.441956,46.572784 443.190948,46.038567 
	C437.113190,40.410938 432.218384,35.878632 426.473419,31.129877 
	C411.987976,31.144400 397.502533,31.158922 382.445435,31.051828 
	C382.280670,31.364317 382.115906,31.676804 381.768433,32.907871 
M155.681000,32.897106 
	C155.771973,44.271469 155.862946,55.645832 156.047119,67.697144 
	C160.652664,72.223770 165.258209,76.750397 170.042343,81.763992 
	C170.345963,81.870148 170.649582,81.976303 171.046356,82.467766 
	C171.262192,82.477882 171.478043,82.488007 171.693893,82.498123 
	C171.619461,82.280014 171.545044,82.061905 171.655182,81.013336 
	C171.625000,71.987160 171.594818,62.960987 172.283798,53.894932 
	C172.523514,53.881481 172.763229,53.868031 173.295410,54.359577 
	C173.461502,54.460838 173.627579,54.562103 174.035507,55.241455 
	C184.240891,65.476555 194.439224,75.718719 204.665283,85.933136 
	C205.467422,86.734360 206.449005,87.925659 207.370407,87.947311 
	C214.515991,88.115173 221.667297,88.039932 228.816833,88.039932 
	C229.059921,87.518715 229.303009,86.997498 229.546112,86.476273 
	C222.779266,79.944588 216.012421,73.412903 209.234741,66.870750 
	C218.922119,60.719082 222.167389,54.736576 220.165268,45.226715 
	C218.688004,38.209881 214.320511,33.477051 206.275299,31.552183 
	C189.855316,31.433657 173.435349,31.315130 156.441650,31.062138 
	C156.259247,31.367147 156.076859,31.672159 155.681000,32.897106 
M361.818756,117.924225 
	C361.875336,123.281822 361.931946,128.639420 361.854248,134.794724 
	C362.865265,135.948273 363.876282,137.101822 364.887329,138.255371 
	C365.278381,137.917557 365.669434,137.579758 366.060486,137.241943 
	C366.060486,129.395584 366.060486,121.549232 366.060486,113.775574 
	C362.748718,112.843750 361.183990,113.578621 361.818756,117.924225 
M112.874329,137.078064 
	C113.921677,137.020203 114.969017,136.962341 116.685005,136.868576 
	C116.727615,136.268234 116.770233,135.667908 116.609161,134.333740 
	C113.215202,133.836945 109.821236,133.340134 105.938187,132.771744 
	C105.938187,126.765503 105.938187,120.874283 105.988235,114.433914 
	C105.668167,114.322472 105.348091,114.211037 104.352173,113.965965 
	C103.896370,114.007095 103.440559,114.048233 102.104652,113.939339 
	C101.807777,114.050865 101.252678,114.158508 101.250931,114.274490 
	C101.143639,121.389626 101.018028,128.506210 101.104172,135.620117 
	C101.113838,136.418884 102.349541,137.881134 103.010292,137.877487 
	C106.037788,137.860779 109.063019,137.431778 112.874329,137.078064 
M62.566212,127.479897 
	C63.161110,126.252258 63.756012,125.024612 64.612656,123.256844 
	C60.509094,123.256844 57.716324,123.256844 54.586700,122.565987 
	C54.586700,120.832176 54.586700,119.098358 54.586700,117.654251 
	C57.396618,117.517906 59.694519,117.406410 62.721378,117.570580 
	C66.156403,118.021973 66.244850,116.218178 65.354858,113.485054 
	C60.242832,113.485054 55.173759,113.485054 49.887413,113.485054 
	C49.887413,121.628471 49.887413,129.521942 49.887413,137.797791 
	C54.457272,137.797791 58.752811,137.772354 63.047897,137.805542 
	C66.722382,137.833939 65.908958,135.762421 65.534081,134.083908 
	C61.383507,133.299973 57.772808,132.617996 54.313015,131.153656 
	C53.929630,128.242142 55.095417,126.971893 58.106350,127.350723 
	C59.364094,127.508980 60.670856,127.277679 62.566212,127.479897 
M151.114853,31.233316 
	C150.735016,31.201250 150.355194,31.169184 149.043060,31.075911 
	C134.040695,31.106941 119.038322,31.137972 103.474449,31.062401 
	C103.347603,31.382456 103.220764,31.702513 102.994835,32.509155 
	C102.994835,32.509155 103.129814,32.987034 102.958733,33.912308 
	C102.958733,51.839722 102.958733,69.767136 102.958733,87.871834 
	C125.769859,87.871834 148.110443,87.871834 171.840851,87.871834 
	C166.649902,82.827873 162.424576,78.433098 157.850510,74.437553 
	C156.291428,73.075661 153.872620,72.067245 151.816940,72.012474 
	C142.334793,71.759811 132.840729,71.981705 123.354904,71.811646 
	C121.950813,71.786469 120.567986,70.575722 119.175316,69.913467 
	C120.539520,69.217117 121.886978,67.960350 123.270760,67.918999 
	C130.187363,67.712311 137.113510,67.824417 143.995636,67.824417 
	C143.995636,62.031624 143.995636,56.948452 143.995636,51.562553 
	C136.726624,51.562553 129.759689,51.488155 122.795631,51.597290 
	C119.793739,51.644333 118.301147,50.876472 119.784149,47.163200 
	C129.806259,47.163200 139.932709,47.163200 150.662369,47.243484 
	C150.918961,46.962055 151.175552,46.680626 151.498688,45.418823 
	C151.435150,40.882397 151.371628,36.345970 151.114853,31.233316 
M422.148804,136.946701 
	C422.148804,136.946701 422.044495,136.972366 421.740906,136.334396 
	C421.240112,135.293121 420.936401,134.081512 420.207214,133.237610 
	C414.543793,126.683578 413.892700,120.428719 421.050049,114.471443 
	C421.238373,114.314682 421.197906,113.883080 421.279327,113.509888 
	C413.837708,111.905380 413.062134,120.276321 407.817017,122.816475 
	C407.817017,119.491417 407.817017,116.706093 407.817017,113.675362 
	C406.190796,113.675362 404.826965,113.675362 403.359985,113.675362 
	C403.359985,121.737793 403.359985,129.463852 403.359985,137.344696 
	C404.967896,137.344696 406.334961,137.344696 407.018707,137.344696 
	C408.058197,133.632935 408.956421,130.425522 409.854675,127.218102 
	C412.453491,129.226730 413.788544,130.941208 414.579834,132.877853 
	C416.010773,136.379883 418.077759,138.264359 422.148804,136.946701 
M274.044800,21.064369 
	C262.040344,21.108719 250.035904,21.153069 237.367249,21.022900 
	C236.500626,21.093124 235.634003,21.163349 233.510162,21.335447 
	C242.040421,28.881685 249.731628,35.685658 257.569397,42.619282 
	C262.798828,37.378078 269.038483,31.184937 275.200684,24.915672 
	C277.375580,22.702995 277.289185,22.618067 274.044800,21.064369 
M225.972885,43.692665 
	C235.810730,53.954411 245.648560,64.216156 255.748138,74.750923 
	C266.216034,64.318848 276.105103,54.494846 285.925476,44.602734 
	C286.543488,43.980213 286.901855,42.829403 286.913239,41.918533 
	C286.995575,35.327827 286.957458,28.735617 286.957458,20.820021 
	C276.144928,31.666309 266.256561,41.585522 256.228668,51.644707 
	C254.557297,50.066505 253.338577,48.968674 252.178665,47.811890 
	C244.870544,40.523434 237.612213,33.184380 230.236679,25.964970 
	C229.127090,24.878864 227.421707,21.415922 226.030319,26.946411 
	C226.046707,32.294113 226.063080,37.641819 225.972885,43.692665 
M360.918945,88.070671 
	C378.543030,88.070671 396.167084,88.070671 413.791168,88.070671 
	C413.941376,87.654846 414.091553,87.239029 414.241730,86.823204 
	C411.445709,84.234436 408.276733,81.942093 405.933350,78.993599 
	C401.427734,73.324600 396.070099,70.967796 388.743866,71.745010 
	C383.931702,72.255508 378.965973,71.318855 374.189209,70.094917 
	C374.128632,57.395500 374.068054,44.696083 373.645416,31.201326 
	C369.431183,31.136961 365.214691,31.135204 361.003632,30.983107 
	C358.731659,30.901045 357.516968,31.505156 358.123718,34.941017 
	C358.111969,51.254597 358.055450,67.568497 358.171082,83.881165 
	C358.180664,85.227859 359.358093,86.566284 360.918945,88.070671 
M227.839188,54.085770 
	C227.153870,53.567928 226.468567,53.050087 225.212112,52.100674 
	C225.212112,55.183899 225.556458,57.544250 225.155304,59.770252 
	C222.839630,72.620087 227.387650,82.256989 237.565033,90.298653 
	C244.259384,95.588188 249.803665,102.333221 256.059387,108.624016 
	C266.065613,98.563629 275.581451,89.019417 285.052673,79.431122 
	C285.831329,78.642853 286.824463,77.564445 286.841705,76.605118 
	C286.985291,68.606361 286.923157,60.603905 286.923157,52.602566 
	C286.536560,52.547276 286.149963,52.491985 285.763397,52.436695 
	C284.804474,53.530342 283.845581,54.623989 282.282837,56.035526 
	C273.657684,64.757141 265.032532,73.478760 255.279129,83.341263 
	C245.911728,73.458572 237.006104,64.063072 227.839188,54.085770 
M332.248962,31.671259 
	C323.354950,30.849882 314.419769,29.548727 305.279602,34.022552 
	C293.193329,41.079155 287.879669,51.837666 290.008484,64.941826 
	C291.792175,75.921631 301.182770,85.689606 312.537476,87.572945 
	C317.413147,88.381622 322.495880,88.145836 327.479156,88.062569 
	C341.562195,87.827255 353.224152,76.782005 354.764587,62.411873 
	C356.277588,48.297665 346.870605,35.158508 332.248962,31.671259 
M84.903687,88.073128 
	C89.490677,88.073128 94.077667,88.073128 98.947678,88.073128 
	C98.947678,69.153915 98.952637,50.781662 98.914398,32.409500 
	C98.913582,32.016949 98.415993,31.625429 97.352959,31.022091 
	C94.223091,31.012186 91.072174,30.778219 87.970627,31.069695 
	C85.837311,31.270184 83.221352,31.594641 81.776001,32.911640 
	C76.553543,37.670326 71.735115,42.872406 66.413368,47.804623 
	C66.187386,47.676739 65.950356,47.651169 65.347939,47.118420 
	C62.572891,44.305107 59.341633,41.809711 57.114880,38.614311 
	C52.000023,31.274471 44.964298,30.049978 36.848709,30.924822 
	C34.662922,31.160446 33.274570,31.404121 33.836353,34.924294 
	C33.893177,48.949970 33.950005,62.975651 33.899231,77.518509 
	C33.997448,77.664658 34.095661,77.810806 34.396667,78.578751 
	C39.325039,83.524727 44.253410,88.470695 49.181782,93.416664 
	C49.568520,93.162079 49.955261,92.907494 50.341999,92.652908 
	C50.341999,80.463455 50.341999,68.274002 50.341999,54.463062 
	C56.118294,60.820721 60.900955,66.084740 66.705139,72.473091 
	C72.221062,66.369392 77.034866,61.042625 81.848671,55.715862 
	C82.237213,55.889969 82.625748,56.064075 83.014290,56.238182 
	C83.014290,66.493225 83.014290,76.748260 82.991287,87.572556 
	C83.320236,87.685173 83.649185,87.797798 84.903687,88.073128 
M220.166382,137.001053 
	C223.504425,136.997192 222.113174,135.266617 221.292023,133.826645 
	C219.248795,130.243668 217.162704,126.685127 215.178986,123.263680 
	C217.598160,119.896950 219.795563,116.838867 222.191986,113.503807 
	C214.325348,112.268005 213.805389,120.231552 208.578339,122.754601 
	C208.578339,119.495964 208.578339,116.597137 208.578339,113.251953 
	C206.693802,113.454445 205.344254,113.599449 203.908325,113.753731 
	C203.908325,121.410027 203.902679,128.564270 203.921173,135.718460 
	C203.922394,136.189835 204.107803,136.660721 204.255768,137.359650 
	C205.650467,137.359650 207.009720,137.359650 207.830597,137.359650 
	C208.820282,133.645126 209.692062,130.373138 210.563843,127.101135 
	C212.893311,128.748947 213.697708,130.372559 214.789322,131.772171 
	C216.220123,133.606689 217.877563,135.264450 220.166382,137.001053 
M167.801437,137.178879 
	C167.175797,136.096039 166.770996,134.388275 165.874634,134.071518 
	C164.395874,133.548950 162.586792,133.791290 160.939362,133.947632 
	C156.006073,134.415756 155.352707,132.001694 156.518616,128.104523 
	C166.438797,126.404808 166.438797,126.404808 165.593430,122.971619 
	C162.605362,122.971619 159.509430,122.971619 156.087814,122.971619 
	C155.886215,112.263069 164.763763,119.866249 167.831558,116.191879 
	C167.467728,113.065262 160.774811,111.987312 152.398239,114.023712 
	C152.398239,121.761566 152.398239,129.500092 152.398239,137.627121 
	C157.445511,137.627121 162.225037,137.627121 167.801437,137.178879 
M312.130341,135.476852 
	C312.130341,133.050583 312.130341,130.624329 312.130341,128.087494 
	C319.783875,127.240715 317.905670,135.084778 322.158264,137.554016 
	C323.034790,136.926239 324.149719,136.127716 325.328918,135.283142 
	C323.999298,132.592896 322.829987,130.226974 321.670410,127.880783 
	C322.596344,126.622337 323.529083,125.508789 324.292389,124.289177 
	C326.948486,120.045456 324.146759,113.988823 319.191528,113.716331 
	C315.508698,113.513824 311.788849,113.984108 307.964813,114.160286 
	C307.964813,120.962471 307.852783,127.423073 308.009186,133.877167 
	C308.095184,137.426453 309.502625,137.999237 312.130341,135.476852 
M257.040833,117.560654 
	C258.628021,117.717964 260.215240,117.875275 262.133453,118.065392 
	C262.133453,123.522324 262.290131,128.653473 262.080933,133.769653 
	C261.929596,137.470139 263.218323,138.583084 267.136169,137.138168 
	C267.136169,130.777145 267.136169,124.392921 267.136169,118.075500 
	C268.110504,117.890526 268.634521,117.885864 269.073486,117.690323 
	C270.510773,117.050072 271.917114,116.340370 273.335358,115.657356 
	C271.809326,114.850929 270.343689,113.536270 268.744446,113.346298 
	C265.633575,112.976761 262.444061,113.333427 259.294098,113.210472 
	C256.283936,113.092964 255.363327,114.351974 257.040833,117.560654 
z"/>
<path fill="#595B5D" opacity="1.000000" stroke="none" 
	d="
M150.059158,47.163200 
	C139.932709,47.163200 129.806259,47.163200 119.784149,47.163200 
	C118.301147,50.876472 119.793739,51.644333 122.795631,51.597290 
	C129.759689,51.488155 136.726624,51.562553 143.995636,51.562553 
	C143.995636,56.948452 143.995636,62.031624 143.995636,67.824417 
	C137.113510,67.824417 130.187363,67.712311 123.270760,67.918999 
	C121.886978,67.960350 120.539520,69.217117 119.175316,69.913467 
	C120.567986,70.575722 121.950813,71.786469 123.354904,71.811646 
	C132.840729,71.981705 142.334793,71.759811 151.816940,72.012474 
	C153.872620,72.067245 156.291428,73.075661 157.850510,74.437553 
	C162.424576,78.433098 166.649902,82.827873 171.840851,87.871834 
	C148.110443,87.871834 125.769859,87.871834 102.958733,87.871834 
	C102.958733,69.767136 102.958733,51.839722 103.504318,33.451595 
	C115.801750,32.991062 127.553581,32.991302 139.305420,32.991398 
	C149.740662,32.991486 149.736221,32.991531 150.012955,43.622753 
	C150.038742,44.612984 150.167526,45.600540 150.174103,46.723885 
	C150.099747,46.858433 150.059158,47.163200 150.059158,47.163200 
z"/>
<path fill="#5A5C5E" opacity="1.000000" stroke="none" 
	d="
M83.014290,87.003304 
	C83.014290,76.748260 83.014290,66.493225 83.014290,56.238182 
	C82.625748,56.064075 82.237213,55.889969 81.848671,55.715862 
	C77.034866,61.042625 72.221062,66.369392 66.705139,72.473091 
	C60.900955,66.084740 56.118294,60.820721 50.341999,54.463062 
	C50.341999,68.274002 50.341999,80.463455 50.341999,92.652908 
	C49.955261,92.907494 49.568520,93.162079 49.181782,93.416664 
	C44.253410,88.470695 39.325039,83.524727 34.432850,78.157555 
	C34.314964,77.491348 34.160896,77.246338 34.006828,77.001328 
	C33.950005,62.975651 33.893177,48.949970 34.388229,34.461288 
	C45.336452,32.140770 53.598606,35.461067 59.676132,44.149864 
	C60.142292,44.816315 60.736980,45.500900 61.434048,45.874832 
	C62.796177,46.605522 64.272964,47.122478 65.702278,47.727921 
	C65.950356,47.651169 66.187386,47.676739 66.969116,47.879028 
	C70.465919,45.686287 73.924400,43.848518 76.237892,41.060596 
	C80.741211,35.633759 85.884537,32.934391 93.062607,33.835381 
	C94.624969,34.031494 96.447464,32.155228 98.150146,31.233429 
	C98.415993,31.625429 98.913582,32.016949 98.914398,32.409500 
	C98.952637,50.781662 98.947678,69.153915 98.947678,88.073128 
	C94.077667,88.073128 89.490677,88.073128 84.337227,87.786819 
	C83.575180,87.248718 83.323021,87.082977 83.014290,87.003304 
z"/>
<path fill="#5B5D5F" opacity="1.000000" stroke="none" 
	d="
M173.002930,53.854584 
	C172.763229,53.868031 172.523514,53.881481 171.582748,54.088490 
	C170.590256,55.835598 170.073578,57.385113 170.045670,58.943382 
	C169.912354,66.386627 169.911621,73.832245 169.863754,81.277023 
	C165.258209,76.750397 160.652664,72.223770 156.313690,67.076248 
	C156.727203,55.309822 156.874146,44.164299 157.488358,33.010674 
	C172.600571,33.001411 187.245712,33.035374 201.890182,32.951893 
	C203.602768,32.942127 205.311646,32.284351 207.022247,31.926987 
	C214.320511,33.477051 218.688004,38.209881 220.165268,45.226715 
	C222.167389,54.736576 218.922119,60.719082 209.234741,66.870750 
	C216.012421,73.412903 222.779266,79.944588 229.546112,86.476273 
	C229.303009,86.997498 229.059921,87.518715 228.816833,88.039932 
	C221.667297,88.039932 214.515991,88.115173 207.370407,87.947311 
	C206.449005,87.925659 205.467422,86.734360 204.665283,85.933136 
	C194.439224,75.718719 184.240891,65.476555 174.138916,54.548477 
	C182.032745,53.572098 189.826492,53.353981 197.611145,52.956982 
	C199.437759,52.863831 201.233521,52.165943 203.258148,51.517673 
	C205.956726,47.951195 203.706482,47.218964 201.018661,47.192356 
	C191.442810,47.097561 181.865463,47.155304 171.662521,47.155304 
	C171.820267,48.923260 171.944397,50.314350 172.132324,51.993591 
	C172.465088,52.806026 172.734009,53.330307 173.002930,53.854584 
z"/>
<path fill="#5A5C5E" opacity="1.000000" stroke="none" 
	d="
M332.997345,32.008591 
	C346.870605,35.158508 356.277588,48.297665 354.764587,62.411873 
	C353.224152,76.782005 341.562195,87.827255 327.479156,88.062569 
	C322.495880,88.145836 317.413147,88.381622 312.537476,87.572945 
	C301.182770,85.689606 291.792175,75.921631 290.008484,64.941826 
	C287.879669,51.837666 293.193329,41.079155 305.837830,34.234520 
	C309.549042,34.295799 312.700653,34.065754 315.855225,34.013397 
	C320.360992,33.938610 324.876068,34.133575 329.371216,33.902702 
	C330.609100,33.839130 331.790192,32.670284 332.997345,32.008591 
M326.027588,47.195587 
	C323.034973,47.217178 320.017151,46.998466 317.054810,47.309013 
	C310.315399,48.015518 305.535095,53.717068 305.868256,60.319370 
	C306.189667,66.689133 311.297394,71.603096 317.971497,71.887619 
	C320.129486,71.979614 322.294647,71.916122 324.456451,71.903488 
	C332.437347,71.856850 337.766022,67.688843 338.631775,60.826462 
	C339.451447,54.329094 334.836487,48.982662 326.027588,47.195587 
z"/>
<path fill="#5A5C5E" opacity="1.000000" stroke="none" 
	d="
M228.100494,54.667583 
	C237.006104,64.063072 245.911728,73.458572 255.279129,83.341263 
	C265.032532,73.478760 273.657684,64.757141 282.756531,56.280376 
	C283.488037,58.638348 283.652283,60.767879 284.019470,62.861816 
	C285.852081,73.312302 282.187103,81.172630 273.917725,87.851631 
	C267.546875,92.997208 262.237549,99.457024 256.237091,105.555183 
	C246.459641,95.826042 237.288132,86.730576 228.180832,77.571274 
	C227.545624,76.932426 227.028702,75.806427 227.062637,74.930428 
	C227.324341,68.172890 227.735596,61.421139 228.100494,54.667583 
z"/>
<path fill="#5A5C5E" opacity="1.000000" stroke="none" 
	d="
M358.291687,34.019897 
	C357.516968,31.505156 358.731659,30.901045 361.003632,30.983107 
	C365.214691,31.135204 369.431183,31.136961 373.519501,31.884483 
	C373.285614,44.841354 373.164642,57.115013 373.112640,69.388969 
	C373.110321,69.934723 373.735901,70.483124 374.069031,71.030289 
	C378.965973,71.318855 383.931702,72.255508 388.743866,71.745010 
	C396.070099,70.967796 401.427734,73.324600 405.933350,78.993599 
	C408.276733,81.942093 411.445709,84.234436 414.241730,86.823204 
	C414.091553,87.239029 413.941376,87.654846 413.791168,88.070671 
	C396.167084,88.070671 378.543030,88.070671 360.459656,87.527069 
	C360.000244,71.026482 360.051453,55.069077 359.925171,39.113079 
	C359.911713,37.411148 358.861115,35.717422 358.291687,34.019897 
z"/>
<path fill="#5D5F61" opacity="1.000000" stroke="none" 
	d="
M403.475037,48.061680 
	C396.962799,47.782372 390.450531,47.503067 383.488281,46.675064 
	C383.035675,41.760860 383.033112,37.395351 383.497162,33.019211 
	C396.658295,33.006050 409.353546,33.067287 422.046539,32.927528 
	C423.811127,32.908104 425.564850,31.897890 427.323578,31.346333 
	C432.218384,35.878632 437.113190,40.410938 443.190948,46.038567 
	C434.441956,46.572784 427.235077,47.012840 419.324890,47.893051 
	C418.411377,50.117809 418.033112,51.901047 418.018555,53.687248 
	C417.930389,64.495781 417.925293,75.304993 417.892456,86.113976 
	C413.313293,81.630737 408.734161,77.147491 404.373108,72.054787 
	C404.724335,64.385948 404.903076,57.326694 404.922455,50.267010 
	C404.924469,49.533234 403.980225,48.796856 403.475037,48.061680 
z"/>
<path fill="#F2811C" opacity="1.000000" stroke="none" 
	d="
M226.079468,42.989521 
	C226.063080,37.641819 226.046707,32.294113 226.427353,26.516575 
	C234.940201,33.942612 243.073975,41.780048 251.164688,49.661709 
	C255.567230,53.950497 256.381561,54.018101 260.901367,49.558681 
	C266.949493,43.591331 272.918427,37.543777 278.943329,31.552731 
	C280.171326,30.331646 281.496521,29.208332 283.679321,27.216484 
	C283.940826,36.086140 286.216980,43.942020 278.136230,49.492329 
	C275.840881,51.068893 274.076935,53.423401 272.085449,55.437134 
	C266.854889,60.726116 261.633179,66.023880 256.086700,71.643616 
	C247.276627,62.820518 239.088776,54.557556 230.807297,46.389534 
	C229.441849,45.042789 227.665771,44.112350 226.079468,42.989521 
z"/>
<path fill="#F9D91C" opacity="1.000000" stroke="none" 
	d="
M274.968842,21.201584 
	C277.289185,22.618067 277.375580,22.702995 275.200684,24.915672 
	C269.038483,31.184937 262.798828,37.378078 257.569397,42.619282 
	C249.731628,35.685658 242.040421,28.881685 233.510162,21.335447 
	C235.634003,21.163349 236.500626,21.093124 237.805313,21.489265 
	C238.770004,22.286409 239.294785,22.902498 239.823517,22.905886 
	C250.707733,22.975668 261.592773,23.014894 272.476257,22.912157 
	C273.312439,22.904263 274.138214,21.797552 274.968842,21.201584 
z"/>
<path fill="#F38C34" opacity="1.000000" stroke="none" 
	d="
M226.026184,43.341095 
	C227.665771,44.112350 229.441849,45.042789 230.807297,46.389534 
	C239.088776,54.557556 247.276627,62.820518 256.086700,71.643616 
	C261.633179,66.023880 266.854889,60.726116 272.085449,55.437134 
	C274.076935,53.423401 275.840881,51.068893 278.136230,49.492329 
	C286.216980,43.942020 283.940826,36.086140 283.679321,27.216484 
	C281.496521,29.208332 280.171326,30.331646 278.943329,31.552731 
	C272.918427,37.543777 266.949493,43.591331 260.901367,49.558681 
	C256.381561,54.018101 255.567230,53.950497 251.164688,49.661709 
	C243.073975,41.780048 234.940201,33.942612 226.489899,26.054022 
	C227.421707,21.415922 229.127090,24.878864 230.236679,25.964970 
	C237.612213,33.184380 244.870544,40.523434 252.178665,47.811890 
	C253.338577,48.968674 254.557297,50.066505 256.228668,51.644707 
	C266.256561,41.585522 276.144928,31.666309 286.957458,20.820021 
	C286.957458,28.735617 286.995575,35.327827 286.913239,41.918533 
	C286.901855,42.829403 286.543488,43.980213 285.925476,44.602734 
	C276.105103,54.494846 266.216034,64.318848 255.748138,74.750923 
	C245.648560,64.216156 235.810730,53.954411 226.026184,43.341095 
z"/>
<path fill="#636567" opacity="1.000000" stroke="none" 
	d="
M227.969833,54.376678 
	C227.735596,61.421139 227.324341,68.172890 227.062637,74.930428 
	C227.028702,75.806427 227.545624,76.932426 228.180832,77.571274 
	C237.288132,86.730576 246.459641,95.826042 256.237091,105.555183 
	C262.237549,99.457024 267.546875,92.997208 273.917725,87.851631 
	C282.187103,81.172630 285.852081,73.312302 284.019470,62.861816 
	C283.652283,60.767879 283.488037,58.638348 283.058472,56.121429 
	C283.845581,54.623989 284.804474,53.530342 285.763397,52.436695 
	C286.149963,52.491985 286.536560,52.547276 286.923157,52.602566 
	C286.923157,60.603905 286.985291,68.606361 286.841705,76.605118 
	C286.824463,77.564445 285.831329,78.642853 285.052673,79.431122 
	C275.581451,89.019417 266.065613,98.563629 256.059387,108.624016 
	C249.803665,102.333221 244.259384,95.588188 237.565033,90.298653 
	C227.387650,82.256989 222.839630,72.620087 225.155304,59.770252 
	C225.556458,57.544250 225.212112,55.183899 225.212112,52.100674 
	C226.468567,53.050087 227.153870,53.567928 227.969833,54.376678 
z"/>
<path fill="#606264" opacity="1.000000" stroke="none" 
	d="
M422.025696,136.913605 
	C418.077759,138.264359 416.010773,136.379883 414.579834,132.877853 
	C413.788544,130.941208 412.453491,129.226730 409.854675,127.218102 
	C408.956421,130.425522 408.058197,133.632935 407.018707,137.344696 
	C406.334961,137.344696 404.967896,137.344696 403.359985,137.344696 
	C403.359985,129.463852 403.359985,121.737793 403.359985,113.675362 
	C404.826965,113.675362 406.190796,113.675362 407.817017,113.675362 
	C407.817017,116.706093 407.817017,119.491417 407.817017,122.816475 
	C413.062134,120.276321 413.837708,111.905380 421.279327,113.509888 
	C421.197906,113.883080 421.238373,114.314682 421.050049,114.471443 
	C413.892700,120.428719 414.543793,126.683578 420.207214,133.237610 
	C420.936401,134.081512 421.240112,135.293121 421.881836,136.640503 
	C422.022736,136.946625 422.025696,136.913605 422.025696,136.913605 
z"/>
<path fill="#606264" opacity="1.000000" stroke="none" 
	d="
M219.801956,136.999649 
	C217.877563,135.264450 216.220123,133.606689 214.789322,131.772171 
	C213.697708,130.372559 212.893311,128.748947 210.563843,127.101135 
	C209.692062,130.373138 208.820282,133.645126 207.830597,137.359650 
	C207.009720,137.359650 205.650467,137.359650 204.255768,137.359650 
	C204.107803,136.660721 203.922394,136.189835 203.921173,135.718460 
	C203.902679,128.564270 203.908325,121.410027 203.908325,113.753731 
	C205.344254,113.599449 206.693802,113.454445 208.578339,113.251953 
	C208.578339,116.597137 208.578339,119.495964 208.578339,122.754601 
	C213.805389,120.231552 214.325348,112.268005 222.191986,113.503807 
	C219.795563,116.838867 217.598160,119.896950 215.178986,123.263680 
	C217.162704,126.685127 219.248795,130.243668 221.292023,133.826645 
	C222.113174,135.266617 223.504425,136.997192 219.801956,136.999649 
z"/>
<path fill="#636567" opacity="1.000000" stroke="none" 
	d="
M167.402985,137.403000 
	C162.225037,137.627121 157.445511,137.627121 152.398239,137.627121 
	C152.398239,129.500092 152.398239,121.761566 152.398239,114.023712 
	C160.774811,111.987312 167.467728,113.065262 167.831558,116.191879 
	C164.763763,119.866249 155.886215,112.263069 156.087814,122.971619 
	C159.509430,122.971619 162.605362,122.971619 165.593430,122.971619 
	C166.438797,126.404808 166.438797,126.404808 156.518616,128.104523 
	C155.352707,132.001694 156.006073,134.415756 160.939362,133.947632 
	C162.586792,133.791290 164.395874,133.548950 165.874634,134.071518 
	C166.770996,134.388275 167.175797,136.096039 167.402985,137.403000 
z"/>
<path fill="#535557" opacity="1.000000" stroke="none" 
	d="
M312.361145,135.787903 
	C309.502625,137.999237 308.095184,137.426453 308.009186,133.877167 
	C307.852783,127.423073 307.964813,120.962471 307.964813,114.160286 
	C311.788849,113.984108 315.508698,113.513824 319.191528,113.716331 
	C324.146759,113.988823 326.948486,120.045456 324.292389,124.289177 
	C323.529083,125.508789 322.596344,126.622337 321.670410,127.880783 
	C322.829987,130.226974 323.999298,132.592896 325.328918,135.283142 
	C324.149719,136.127716 323.034790,136.926239 322.158264,137.554016 
	C317.905670,135.084778 319.783875,127.240715 312.130341,128.087494 
	C312.130341,130.624329 312.130341,133.050583 312.361145,135.787903 
M317.179230,124.107468 
	C318.418976,122.756271 319.658722,121.405083 320.898499,120.053894 
	C318.969971,118.829819 316.878845,116.394341 315.145844,116.626961 
	C311.206757,117.155701 311.667847,120.561295 312.369568,123.877968 
	C313.717255,123.959496 315.010040,124.037697 317.179230,124.107468 
z"/>
<path fill="#707273" opacity="1.000000" stroke="none" 
	d="
M256.664490,117.348495 
	C255.363327,114.351974 256.283936,113.092964 259.294098,113.210472 
	C262.444061,113.333427 265.633575,112.976761 268.744446,113.346298 
	C270.343689,113.536270 271.809326,114.850929 273.335358,115.657364 
	C271.917114,116.340370 270.510773,117.050072 269.073486,117.690323 
	C268.634521,117.885864 268.110504,117.890526 267.136169,118.075500 
	C267.136169,124.392921 267.136169,130.777145 267.136169,137.138168 
	C263.218323,138.583084 261.929596,137.470139 262.080933,133.769653 
	C262.290131,128.653473 262.133453,123.522324 262.133453,118.065392 
	C260.215240,117.875275 258.628021,117.717964 256.664490,117.348495 
z"/>
<path fill="#707273" opacity="1.000000" stroke="none" 
	d="
M54.162109,131.936035 
	C57.772808,132.617996 61.383507,133.299973 65.534081,134.083908 
	C65.908958,135.762421 66.722382,137.833939 63.047897,137.805542 
	C58.752811,137.772354 54.457272,137.797791 49.887413,137.797791 
	C49.887413,129.521942 49.887413,121.628471 49.887413,113.485054 
	C55.173759,113.485054 60.242832,113.485054 65.354858,113.485054 
	C66.244850,116.218178 66.156403,118.021973 62.422070,117.163498 
	C61.238605,116.023125 60.430546,114.822258 59.452946,114.663177 
	C57.880394,114.407265 56.180676,115.050964 54.561989,114.934654 
	C51.605919,114.722229 50.849777,116.139763 50.920578,118.797417 
	C51.044178,123.437012 50.879150,128.084412 51.010292,132.723587 
	C51.042038,133.846542 51.757442,134.950180 52.614372,137.327454 
	C53.433975,134.472443 53.798042,133.204239 54.162109,131.936035 
M61.479031,135.046326 
	C61.231205,135.202759 60.983379,135.359192 60.735558,135.515625 
	C60.991272,135.661407 61.246990,135.807175 61.502705,135.952957 
	C61.649929,135.677643 61.797153,135.402328 61.479031,135.046326 
z"/>
<path fill="#4F5254" opacity="1.000000" stroke="none" 
	d="
M358.207703,34.480453 
	C358.861115,35.717422 359.911713,37.411148 359.925171,39.113079 
	C360.051453,55.069077 360.000244,71.026482 359.996613,87.446014 
	C359.358093,86.566284 358.180664,85.227859 358.171082,83.881165 
	C358.055450,67.568497 358.111969,51.254597 358.207703,34.480453 
z"/>
<path fill="#4B4D50" opacity="1.000000" stroke="none" 
	d="
M150.248474,46.589336 
	C150.167526,45.600540 150.038742,44.612984 150.012955,43.622753 
	C149.736221,32.991531 149.740662,32.991486 139.305420,32.991398 
	C127.553581,32.991302 115.801750,32.991062 103.589859,32.988960 
	C103.129814,32.987034 102.994835,32.509155 103.238403,32.166817 
	C103.741768,31.669485 103.926430,31.450993 104.035950,31.169003 
	C119.038322,31.137972 134.040695,31.106941 149.687378,31.297060 
	C150.657150,31.615322 150.982635,31.712433 151.308105,31.809546 
	C151.371628,36.345970 151.435150,40.882397 151.157288,45.884827 
	C150.626770,46.430328 150.437622,46.509830 150.248474,46.589336 
z"/>
<path fill="#636567" opacity="1.000000" stroke="none" 
	d="
M54.237564,131.544846 
	C53.798042,133.204239 53.433975,134.472443 52.614372,137.327454 
	C51.757442,134.950180 51.042038,133.846542 51.010292,132.723587 
	C50.879150,128.084412 51.044178,123.437012 50.920578,118.797417 
	C50.849777,116.139763 51.605919,114.722229 54.561989,114.934654 
	C56.180676,115.050964 57.880394,114.407265 59.452946,114.663177 
	C60.430546,114.822258 61.238605,116.023125 62.057587,117.025665 
	C59.694519,117.406410 57.396618,117.517906 54.586700,117.654251 
	C54.586700,119.098358 54.586700,120.832176 54.884781,123.259995 
	C57.440353,125.043846 59.697842,126.133675 61.955330,127.223495 
	C60.670856,127.277679 59.364094,127.508980 58.106350,127.350723 
	C55.095417,126.971893 53.929630,128.242142 54.237564,131.544846 
z"/>
<path fill="#5D5F61" opacity="1.000000" stroke="none" 
	d="
M116.016365,136.904480 
	C114.969017,136.962341 113.921677,137.020203 112.215042,136.791504 
	C108.853638,136.183060 106.151527,135.861176 102.984756,135.483932 
	C102.984756,128.173187 102.984756,121.131279 102.984756,114.089363 
	C103.440559,114.048233 103.896370,114.007095 104.771378,114.242050 
	C105.377937,114.772537 105.627136,114.927505 105.938187,114.983055 
	C105.938187,120.874283 105.938187,126.765503 105.938187,132.771744 
	C109.821236,133.340134 113.215202,133.836945 116.497810,134.862122 
	C116.263100,135.895172 116.139732,136.399826 116.016365,136.904480 
z"/>
<path fill="#4F5254" opacity="1.000000" stroke="none" 
	d="
M206.648773,31.739586 
	C205.311646,32.284351 203.602768,32.942127 201.890182,32.951893 
	C187.245712,33.035374 172.600571,33.001411 157.482376,32.759659 
	C157.005722,32.349518 157.002304,32.182297 157.003723,31.810471 
	C157.008560,31.605867 157.015366,31.196604 157.015366,31.196604 
	C173.435349,31.315130 189.855316,31.433657 206.648773,31.739586 
z"/>
<path fill="#5D5F61" opacity="1.000000" stroke="none" 
	d="
M65.525108,47.423172 
	C64.272964,47.122478 62.796177,46.605522 61.434048,45.874832 
	C60.736980,45.500900 60.142292,44.816315 59.676132,44.149864 
	C53.598606,35.461067 45.336452,32.140770 34.473801,33.999252 
	C33.274570,31.404121 34.662922,31.160446 36.848709,30.924822 
	C44.964298,30.049978 52.000023,31.274471 57.114880,38.614311 
	C59.341633,41.809711 62.572891,44.305107 65.525108,47.423172 
z"/>
<path fill="#5D5F61" opacity="1.000000" stroke="none" 
	d="
M97.751556,31.127760 
	C96.447464,32.155228 94.624969,34.031494 93.062607,33.835381 
	C85.884537,32.934391 80.741211,35.633759 76.237892,41.060596 
	C73.924400,43.848518 70.465919,45.686287 67.144501,47.930260 
	C71.735115,42.872406 76.553543,37.670326 81.776001,32.911640 
	C83.221352,31.594641 85.837311,31.270184 87.970627,31.069695 
	C91.072174,30.778219 94.223091,31.012186 97.751556,31.127760 
z"/>
<path fill="#4F5254" opacity="1.000000" stroke="none" 
	d="
M426.898499,31.238106 
	C425.564850,31.897890 423.811127,32.908104 422.046539,32.927528 
	C409.353546,33.067287 396.658295,33.006050 383.487854,32.763390 
	C383.007965,32.347813 383.003998,32.177418 383.003387,31.798615 
	C383.006775,31.590200 383.017090,31.173445 383.017090,31.173445 
	C397.502533,31.158922 411.987976,31.144400 426.898499,31.238106 
z"/>
<path fill="#F9D700" opacity="1.000000" stroke="none" 
	d="
M274.506836,21.132975 
	C274.138214,21.797552 273.312439,22.904263 272.476257,22.912157 
	C261.592773,23.014894 250.707733,22.975668 239.823517,22.905886 
	C239.294785,22.902498 238.770004,22.286409 238.137421,21.576525 
	C250.035904,21.153069 262.040344,21.108719 274.506836,21.132975 
z"/>
<path fill="#535557" opacity="1.000000" stroke="none" 
	d="
M361.990143,117.002670 
	C361.183990,113.578621 362.748718,112.843750 366.060486,113.775574 
	C366.060486,121.549232 366.060486,129.395584 366.060486,137.241943 
	C365.669434,137.579758 365.278381,137.917557 364.887329,138.255371 
	C363.876282,137.101822 362.865265,135.948273 362.259583,134.526764 
	C363.366760,134.140045 364.680420,134.031357 364.682587,133.901138 
	C364.783417,127.761200 364.770416,121.619385 364.770416,114.725227 
	C363.245300,115.974510 362.617706,116.488594 361.990143,117.002670 
z"/>
<path fill="#606264" opacity="1.000000" stroke="none" 
	d="
M332.623169,31.839928 
	C331.790192,32.670284 330.609100,33.839130 329.371216,33.902702 
	C324.876068,34.133575 320.360992,33.938610 315.855225,34.013397 
	C312.700653,34.065754 309.549042,34.295799 306.184204,34.187019 
	C314.419769,29.548727 323.354950,30.849882 332.623169,31.839928 
z"/>
<path fill="#46484B" opacity="1.000000" stroke="none" 
	d="
M102.544708,114.014351 
	C102.984756,121.131279 102.984756,128.173187 102.984756,135.483932 
	C106.151527,135.861176 108.853638,136.183060 111.822403,136.827881 
	C109.063019,137.431778 106.037788,137.860779 103.010292,137.877487 
	C102.349541,137.881134 101.113838,136.418884 101.104172,135.620117 
	C101.018028,128.506210 101.143639,121.389626 101.250931,114.274490 
	C101.252678,114.158508 101.807777,114.050865 102.544708,114.014351 
z"/>
<path fill="#5D5F61" opacity="1.000000" stroke="none" 
	d="
M361.904449,117.463448 
	C362.617706,116.488594 363.245300,115.974510 364.770416,114.725227 
	C364.770416,121.619385 364.783417,127.761200 364.682587,133.901138 
	C364.680420,134.031357 363.366760,134.140045 362.326752,134.127899 
	C361.931946,128.639420 361.875336,123.281822 361.904449,117.463448 
z"/>
<path fill="#46484B" opacity="1.000000" stroke="none" 
	d="
M169.953049,81.520508 
	C169.911621,73.832245 169.912354,66.386627 170.045670,58.943382 
	C170.073578,57.385113 170.590256,55.835598 171.223175,54.108429 
	C171.594818,62.960987 171.625000,71.987160 171.411072,81.439499 
	C171.166946,81.865654 170.953201,82.082458 170.953201,82.082458 
	C170.649582,81.976303 170.345963,81.870148 169.953049,81.520508 
z"/>
<path fill="#46484B" opacity="1.000000" stroke="none" 
	d="
M403.418213,48.522720 
	C403.980225,48.796856 404.924469,49.533234 404.922455,50.267010 
	C404.903076,57.326694 404.724335,64.385948 404.281738,71.730293 
	C403.768616,64.338089 403.565002,56.660927 403.418213,48.522720 
z"/>
<path fill="#46484B" opacity="1.000000" stroke="none" 
	d="
M374.129089,70.562607 
	C373.735901,70.483124 373.110321,69.934723 373.112640,69.388969 
	C373.164642,57.115013 373.285614,44.841354 373.700500,32.282154 
	C374.068054,44.696083 374.128632,57.395500 374.129089,70.562607 
z"/>
<path fill="#46484B" opacity="1.000000" stroke="none" 
	d="
M417.900940,86.094421 
	C417.925293,75.304993 417.930389,64.495781 418.018555,53.687248 
	C418.033112,51.901047 418.411377,50.117809 418.970642,48.044197 
	C419.347839,60.215820 419.376007,72.676445 418.984253,85.605240 
	C418.336823,86.082085 418.109283,86.090744 417.881775,86.099396 
	C417.881775,86.099396 417.909393,86.074867 417.900940,86.094421 
z"/>
<path fill="#46484B" opacity="1.000000" stroke="none" 
	d="
M156.998901,32.015072 
	C157.002304,32.182297 157.005722,32.349518 157.015106,32.767757 
	C156.874146,44.164299 156.727203,55.309822 156.267105,66.737770 
	C155.862946,55.645832 155.771973,44.271469 156.064331,32.443855 
	C156.631424,31.998766 156.815170,32.006920 156.998901,32.015072 
z"/>
<path fill="#46484B" opacity="1.000000" stroke="none" 
	d="
M173.149170,54.107079 
	C172.734009,53.330307 172.465088,52.806026 172.596176,52.003716 
	C183.011963,51.732548 193.027725,51.739414 203.043488,51.746277 
	C201.233521,52.165943 199.437759,52.863831 197.611145,52.956982 
	C189.826492,53.353981 182.032745,53.572098 174.017990,54.259438 
	C173.627579,54.562103 173.461502,54.460838 173.149170,54.107079 
z"/>
<path fill="#707273" opacity="1.000000" stroke="none" 
	d="
M62.260773,127.351700 
	C59.697842,126.133675 57.440353,125.043846 55.053207,123.605423 
	C57.716324,123.256844 60.509094,123.256844 64.612656,123.256844 
	C63.756012,125.024612 63.161110,126.252258 62.260773,127.351700 
z"/>
<path fill="#46484B" opacity="1.000000" stroke="none" 
	d="
M383.000000,32.007027 
	C383.003998,32.177418 383.007965,32.347813 383.021240,32.774025 
	C383.033112,37.395351 383.035675,41.760860 383.026459,46.595222 
	C382.591461,44.170746 382.072449,41.287048 381.780243,38.380554 
	C381.598663,36.574188 381.760651,34.733276 382.122375,32.448887 
	C382.650848,31.995607 382.825409,32.001316 383.000000,32.007027 
z"/>
<path fill="#46484B" opacity="1.000000" stroke="none" 
	d="
M116.350685,136.886536 
	C116.139732,136.399826 116.263100,135.895172 116.599655,135.229034 
	C116.770233,135.667908 116.727615,136.268234 116.350685,136.886536 
z"/>
<path fill="#606264" opacity="1.000000" stroke="none" 
	d="
M422.033630,136.959503 
	C422.044495,136.972366 422.148804,136.946701 422.087250,136.930145 
	C422.025696,136.913605 422.022736,136.946625 422.033630,136.959503 
z"/>
<path fill="#4B4D50" opacity="1.000000" stroke="none" 
	d="
M83.002792,87.287933 
	C83.323021,87.082977 83.575180,87.248718 83.874451,87.705467 
	C83.649185,87.797798 83.320236,87.685173 83.002792,87.287933 
z"/>
<path fill="#77797B" opacity="1.000000" stroke="none" 
	d="
M103.755203,31.115702 
	C103.926430,31.450993 103.741768,31.669485 103.287949,31.923525 
	C103.220764,31.702513 103.347603,31.382456 103.755203,31.115702 
z"/>
<path fill="#77797B" opacity="1.000000" stroke="none" 
	d="
M151.211487,31.521431 
	C150.982635,31.712433 150.657150,31.615322 150.153519,31.327663 
	C150.355194,31.169184 150.735016,31.201250 151.211487,31.521431 
z"/>
<path fill="#5B5D5F" opacity="1.000000" stroke="none" 
	d="
M157.003723,31.810471 
	C156.815170,32.006920 156.631424,31.998766 156.171082,31.983891 
	C156.076859,31.672159 156.259247,31.367147 156.728516,31.129372 
	C157.015366,31.196604 157.008560,31.605867 157.003723,31.810471 
z"/>
<path fill="#5D5F61" opacity="1.000000" stroke="none" 
	d="
M383.003387,31.798615 
	C382.825409,32.001316 382.650848,31.995607 382.213715,31.989597 
	C382.115906,31.676804 382.280670,31.364317 382.731262,31.112637 
	C383.017090,31.173445 383.006775,31.590200 383.003387,31.798615 
z"/>
<path fill="#46484B" opacity="1.000000" stroke="none" 
	d="
M105.963211,114.708481 
	C105.627136,114.927505 105.377937,114.772537 105.109299,114.308868 
	C105.348091,114.211037 105.668167,114.322472 105.963211,114.708481 
z"/>
<path fill="#77797B" opacity="1.000000" stroke="none" 
	d="
M150.174103,46.723885 
	C150.437622,46.509830 150.626770,46.430328 151.124023,46.375015 
	C151.175552,46.680626 150.918961,46.962055 150.360764,47.203342 
	C150.059158,47.163200 150.099747,46.858433 150.174103,46.723885 
z"/>
<path fill="#4F5254" opacity="1.000000" stroke="none" 
	d="
M33.953030,77.259918 
	C34.160896,77.246338 34.314964,77.491348 34.331455,77.846664 
	C34.095661,77.810806 33.997448,77.664658 33.953030,77.259918 
z"/>
<path fill="#5B5D5F" opacity="1.000000" stroke="none" 
	d="
M171.318787,81.854729 
	C171.545044,82.061905 171.619461,82.280014 171.693878,82.498123 
	C171.478043,82.488007 171.262192,82.477882 170.999786,82.275116 
	C170.953201,82.082458 171.166946,81.865654 171.318787,81.854729 
z"/>
<path fill="#5D5F61" opacity="1.000000" stroke="none" 
	d="
M417.996094,86.390594 
	C418.109283,86.090744 418.336823,86.082085 418.906128,86.073242 
	C418.868744,86.275978 418.489563,86.478889 417.996094,86.390594 
z"/>
<path fill="#E4E4E4" opacity="1.000000" stroke="none" 
	d="
M203.258148,51.517677 
	C193.027725,51.739414 183.011963,51.732548 172.532349,51.715561 
	C171.944397,50.314350 171.820267,48.923260 171.662521,47.155304 
	C181.865463,47.155304 191.442810,47.097561 201.018661,47.192356 
	C203.706482,47.218964 205.956726,47.951195 203.258148,51.517677 
z"/>
<path fill="#FBFBFB" opacity="1.000000" stroke="none" 
	d="
M326.461548,47.212723 
	C334.836487,48.982662 339.451447,54.329094 338.631775,60.826462 
	C337.766022,67.688843 332.437347,71.856850 324.456451,71.903488 
	C322.294647,71.916122 320.129486,71.979614 317.971497,71.887619 
	C311.297394,71.603096 306.189667,66.689133 305.868256,60.319370 
	C305.535095,53.717068 310.315399,48.015518 317.054810,47.309013 
	C320.017151,46.998466 323.034973,47.217178 326.461548,47.212723 
z"/>
<path fill="#E4E4E4" opacity="1.000000" stroke="none" 
	d="
M316.741028,124.111679 
	C315.010040,124.037697 313.717255,123.959496 312.369568,123.877968 
	C311.667847,120.561295 311.206757,117.155701 315.145844,116.626961 
	C316.878845,116.394341 318.969971,118.829819 320.898499,120.053894 
	C319.658722,121.405083 318.418976,122.756271 316.741028,124.111679 
z"/>
<path fill="#636567" opacity="1.000000" stroke="none" 
	d="
M61.711704,135.086670 
	C61.797153,135.402328 61.649929,135.677643 61.502705,135.952957 
	C61.246990,135.807175 60.991272,135.661407 60.735558,135.515625 
	C60.983379,135.359192 61.231205,135.202759 61.711704,135.086670 
z"/>
</svg>