<?xml version="1.0" encoding="UTF-8"?>
<svg id="katman_1" data-name="katman 1" xmlns="http://www.w3.org/2000/svg" viewBox="0 0 781.41 213.51">
  <defs>
    <style>
      .cls-1 {
        fill: #706f6f;
      }

      .cls-2 {
        fill: #f39200;
      }

      .cls-3 {
        fill: #ffde00;
      }
    </style>
  </defs>
  <g>
    <path class="cls-1" d="M30.47,213.51v-46.35h30.53v8.07h-21.48v10.87h18.29v8.07h-18.29v11.26h21.48v8.07h-30.53Z"/>
    <path class="cls-1" d="M129.04,213.51v-46.35h9.05v38.28h21.03v8.07h-30.08Z"/>
    <path class="cls-1" d="M225.66,213.51v-46.35h30.53v8.07h-21.48v10.87h18.29v8.07h-18.29v11.26h21.48v8.07h-30.53Z"/>
    <path class="cls-1" d="M351.18,213.51l-11.91-21.09-5.99,7.16v13.93h-9.05v-46.35h9.05v20.18l16.34-20.18h11l-15.36,18.42,16.47,27.93h-10.55Z"/>
    <path class="cls-1" d="M444.42,175.23v38.28h-9.05v-38.28h-12.11v-8.07h33.27v8.07h-12.11Z"/>
    <path class="cls-1" d="M547.67,213.51l-9.05-18.49h-6.51v18.49h-9.05v-46.35h18.16c9.44,0,15.04,6.45,15.04,14.19,0,6.51-3.97,10.55-8.46,12.17l10.35,19.99h-10.48ZM540.64,175.23h-8.53v12.24h8.53c3.97,0,6.58-2.54,6.58-6.12s-2.61-6.12-6.58-6.12Z"/>
    <path class="cls-1" d="M624.83,213.51v-46.35h9.05v46.35h-9.05ZM625.54,154.59h7.49v7.55h-7.49v-7.55Z"/>
    <path class="cls-1" d="M730.82,213.51l-11.91-21.09-5.99,7.16v13.93h-9.05v-46.35h9.05v20.18l16.34-20.18h11l-15.37,18.42,16.47,27.93h-10.55Z"/>
  </g>
  <g>
    <path class="cls-1" d="M31.12,64.42v75.24L0,108.54V19.05h29.8l32.45,32.45,32.45-32.45h29.8v108.94h-31.12v-63.57l-31.12,31.12-31.12-31.12Z"/>
    <path class="cls-1" d="M162.88,50.19h61.82v-31.14h-92.94v108.97h131.3l-31.12-31.14h-69.05v-7.78h48.01v-31.13h-48.01v-7.78Z"/>
    <path class="cls-1" d="M321.41,19.05c9.65,0,17.9,3.42,24.75,10.27,6.84,6.85,10.27,15.1,10.27,24.74s-3.42,17.9-10.27,24.74c-3.89,3.89-8.25,6.67-13.07,8.33l40.85,40.85h-44.04l-66.84-66.84v58l-31.12-31.12V19.05h89.48ZM263.05,50.18v7.78h58.36c1.09,0,2.01-.38,2.76-1.13.75-.75,1.13-1.67,1.13-2.76s-.38-2.01-1.13-2.76c-.75-.75-1.67-1.13-2.76-1.13h-58.36Z"/>
    <path class="cls-1" d="M541.8,127.99c-15.04,0-27.88-5.32-38.52-15.95-10.64-10.63-15.95-23.47-15.95-38.52s5.32-27.88,15.95-38.52c10.63-10.63,23.47-15.95,38.52-15.95h15.56c15.04,0,27.88,5.32,38.52,15.95,10.63,10.63,15.95,23.47,15.95,38.52s-5.32,27.88-15.95,38.52c-10.64,10.63-23.47,15.95-38.52,15.95h-15.56ZM541.8,50.18c-6.43,0-11.93,2.28-16.5,6.85-4.57,4.57-6.85,10.06-6.85,16.5s2.28,11.93,6.85,16.5c4.56,4.57,10.06,6.85,16.5,6.85h15.56c6.43,0,11.93-2.28,16.5-6.85,4.56-4.56,6.85-10.06,6.85-16.5s-2.28-11.93-6.85-16.5c-4.57-4.56-10.07-6.85-16.5-6.85h-15.56Z"/>
    <path class="cls-1" d="M648.98,96.87h46.26l31.12,31.12h-108.5V19.05h31.12v77.81Z"/>
    <path class="cls-2" d="M423.5,58.45L481.95,0l.44,43.15-58.89,58.89-57.58-57.58L365.04,0l58.45,58.45Z"/>
    <path class="cls-1" d="M423.5,116.64l58.45-58.45.44,49.5-58.89,58.89-58.92-58.92.47-49.47,58.45,58.45Z"/>
    <path class="cls-3" d="M467.55,0l-44.05,44.05L381.03,0h86.52Z"/>
    <path class="cls-1" d="M751.21,19.05l30.2,31.12h-46.22v77.81l-31.13-31.12v-46.69h-41.43v-31.12h88.58Z"/>
  </g>
</svg>